<svg width="23" height="23" viewBox="0 0 23 23" fill="none" xmlns="http://www.w3.org/2000/svg">
<path d="M7.10159 8.04497C9.1856 6.01776 13.0915 6.4385 16.4337 8.83545M7.10159 8.04497C4.99138 10.0977 5.45012 13.9736 7.99287 17.2503C5.77779 17.8495 3.66758 17.5563 2.33067 16.2558C-0.0810022 13.9098 0.875804 9.16694 4.4671 5.67352C8.0584 2.18009 12.9342 1.24936 15.3459 3.59531C16.6303 4.84478 16.9449 6.78274 16.4337 8.83545M7.10159 8.04497C4.99138 10.0977 5.45036 13.9734 8.00621 17.25C8.37321 17.7218 8.79263 18.1808 9.23826 18.627C12.8296 22.1204 17.7053 23.0512 20.117 20.7052C22.5287 18.3593 21.5719 13.6164 17.9806 10.1229C17.4825 9.63845 16.9711 9.21794 16.4337 8.83545" stroke="white" stroke-width="0.98" stroke-miterlimit="10" stroke-linejoin="round"/>
<path d="M20.5881 3.6084L20.6143 3.69765C20.9944 4.98537 21.8464 5.9926 22.9343 6.45159L22.9998 6.47709C21.8595 6.92333 20.9551 7.98156 20.575 9.34578L20.5488 9.25653C20.1687 7.96881 19.3167 6.96158 18.2289 6.50259L18.1633 6.47709C19.3036 6.0181 20.208 4.95987 20.5881 3.6084Z" fill="#F5FF85"/>
<path d="M18.0977 0L18.1108 0.0509989C18.3205 0.739485 18.7792 1.28772 19.3559 1.52997L19.3953 1.54272C18.7792 1.78496 18.3074 2.3587 18.0977 3.07269L18.0846 3.02169C17.8749 2.34595 17.4161 1.79771 16.8394 1.55547L16.8001 1.54272C17.4161 1.30047 17.888 0.726735 18.0977 0Z" fill="#F5FF85"/>
</svg>
