<svg width="150" height="24" viewBox="0 0 150 24" fill="none" xmlns="http://www.w3.org/2000/svg">
<g clip-path="url(#clip0_856_37)">
<path d="M2.33582 19.3457V3.9047C2.33582 3.40852 2.33582 3.03143 2.30568 2.828C2.27585 2.61033 2.20965 2.39907 2.10977 2.20282C1.93396 1.77611 1.49191 1.55283 0.778609 1.52802C0.276282 1.52802 0 1.31466 0 0.952457C0 0.590249 0.266234 0.456282 0.808747 0.456282H8.05231C9.64172 0.438393 11.2249 0.655817 12.7491 1.10131C14.0666 1.47923 15.3003 2.09864 16.3859 2.92723C17.3663 3.69137 18.1696 4.65404 18.7418 5.75047C19.3094 6.8642 19.5988 8.09597 19.5857 9.34278C19.5857 11.6583 18.7402 13.4395 17.049 14.6866C15.3578 15.9336 12.9651 16.5588 9.87073 16.5621C9.37175 16.5621 8.86942 16.5473 8.36375 16.5175C7.86142 16.4827 7.42942 16.4331 7.06272 16.3736C6.82663 16.3289 6.6056 16.2942 6.39965 16.2743C6.19369 16.2545 6.04802 16.2446 5.9576 16.2446C5.5909 16.2446 5.40504 16.448 5.40504 16.8499V20.0602C5.40504 20.5563 5.40504 20.9334 5.44021 21.1369C5.46109 21.341 5.51537 21.5404 5.60095 21.7273C5.69922 21.9493 5.87859 22.1264 6.10328 22.2235C6.39081 22.3313 6.69143 22.4013 6.99742 22.4319C7.49974 22.4319 7.74589 22.6452 7.74589 23.0074C7.74589 23.3697 7.47463 23.5036 6.93212 23.5036H0.778609C0.276282 23.5036 0 23.3349 0 23.0074C0 22.68 0.246138 22.4517 0.743442 22.4319C1.04504 22.4043 1.34108 22.3341 1.62252 22.2235C1.84555 22.1241 2.02416 21.9476 2.12484 21.7273C2.23068 21.5567 2.29754 21.3654 2.32075 21.1666C2.32075 20.9632 2.35089 20.596 2.35089 20.0602L2.33582 19.3457ZM7.73082 1.63717C7.10526 1.58072 6.47605 1.69576 5.91239 1.96962C5.7345 2.11409 5.59555 2.29978 5.5079 2.51014C5.42026 2.72051 5.38664 2.94902 5.41006 3.17532V13.332C5.39825 13.6352 5.473 13.9356 5.62578 14.1988C5.77856 14.462 6.00321 14.6775 6.27407 14.8206C7.1564 15.2055 8.11937 15.3756 9.08208 15.3167C10.012 15.3381 10.9407 15.2397 11.8449 15.024C12.5614 14.8326 13.2336 14.5057 13.824 14.0614C15.388 12.9103 16.1682 11.2316 16.1649 9.02523C16.1811 7.97596 15.9812 6.93439 15.5772 5.96382C15.2024 5.07068 14.625 4.27452 13.8894 3.63677C13.1102 2.97168 12.2053 2.46575 11.227 2.14824C10.098 1.78897 8.91675 1.61629 7.73082 1.63717Z" fill="#1D1D1B"/>
<path d="M23.2873 17.5497C23.0261 17.634 22.8955 17.7283 22.8955 17.8375C22.9449 18.1956 23.0553 18.5428 23.222 18.8646C23.7058 19.9695 24.4791 20.9269 25.4624 21.6382C26.3683 22.2893 27.4614 22.637 28.5818 22.6305C29.3698 22.6277 30.1467 22.4461 30.8523 22.0996C31.6053 21.7353 32.2792 21.2298 32.8365 20.6111C32.905 20.5165 32.9943 20.4384 33.0977 20.3829C33.1676 20.3457 33.2447 20.3237 33.3238 20.3183C33.6051 20.3183 33.7458 20.4722 33.7458 20.7699C33.7341 20.9304 33.6786 21.0847 33.585 21.2164C32.9103 22.109 32.0069 22.8078 30.9679 23.2408C29.8704 23.7289 28.6803 23.9809 27.4767 23.9801C26.4069 23.9908 25.346 23.7883 24.3573 23.3847C23.4277 23.0072 22.5855 22.447 21.8817 21.7383C21.178 21.0295 20.6274 20.1868 20.2633 19.2615C19.5078 17.301 19.4864 15.1383 20.203 13.1635C20.5208 12.2869 21.0107 11.4809 21.6447 10.7918C22.2669 10.1261 23.0186 9.5911 23.8549 9.21892C24.7276 8.83006 25.6755 8.63365 26.6328 8.64335C27.6823 8.63242 28.7181 8.87967 29.6468 9.36281C30.597 9.86969 31.4235 10.5759 32.068 11.4319C32.5212 12.0225 32.9117 12.6576 33.2334 13.3272C33.3652 13.5979 33.4436 13.8909 33.4645 14.1906C33.4683 14.2784 33.4415 14.3648 33.3884 14.4352C33.3354 14.5057 33.2593 14.556 33.1731 14.5776L23.2873 17.5497ZM22.7347 16.5226C22.8377 16.5096 22.9369 16.4758 23.0261 16.4234L30.1089 14.3742C30.3651 14.3097 30.4957 14.1906 30.4957 14.0219C30.4849 13.8532 30.4529 13.6865 30.4003 13.5257C30.335 13.3024 30.2496 13.0295 30.139 12.7715C29.88 12.1017 29.4694 11.4992 28.9385 11.0101C28.5573 10.6383 28.1054 10.3448 27.6088 10.1464C27.1122 9.94794 26.5807 9.84858 26.0451 9.85401C25.522 9.83811 25.0032 9.9514 24.5357 10.1836C24.0682 10.4158 23.6667 10.7596 23.3677 11.1838C22.6461 12.2599 22.2939 13.5367 22.363 14.8257C22.3553 15.2346 22.3873 15.6434 22.4585 16.0463C22.5388 16.3638 22.6493 16.5226 22.7347 16.5226Z" fill="#1D1D1B"/>
<path d="M39.1718 9.36267L39.2019 11.7046C39.2019 11.8535 39.2019 11.9279 39.2672 11.9279C39.3915 11.8027 39.4995 11.6627 39.5887 11.5111C39.8142 11.1135 40.0911 10.7465 40.4125 10.4195C40.7427 10.0791 41.1119 9.77769 41.5126 9.52145C41.8973 9.27249 42.3104 9.0693 42.7433 8.91612C43.1577 8.76998 43.5943 8.69447 44.0343 8.69283C44.407 8.69158 44.7777 8.7451 45.1344 8.85161C45.4648 8.95321 45.7818 9.09311 46.0788 9.2684C46.2295 9.3329 46.3048 9.41228 46.3048 9.49663C46.3063 9.60038 46.2727 9.70165 46.2094 9.78442C45.9934 10.2806 45.8025 10.7768 45.6418 11.2432C45.5186 11.5846 45.4146 11.9324 45.3303 12.2852C45.3168 12.4768 45.2489 12.6608 45.1344 12.816C45.0891 12.8642 45.0338 12.9021 44.9722 12.9269C44.9106 12.9518 44.8442 12.963 44.7777 12.9599C44.5417 12.9599 44.4111 12.7466 44.391 12.3199C44.3878 12.1101 44.3421 11.9031 44.2564 11.7111C44.1708 11.5191 44.047 11.346 43.8925 11.2021C43.7379 11.0582 43.5556 10.9464 43.3565 10.8733C43.1574 10.8003 42.9455 10.7675 42.7333 10.7768C42.2469 10.7747 41.7674 10.8906 41.3368 11.1142C40.9006 11.343 40.5187 11.661 40.2166 12.047C39.8909 12.4623 39.6379 12.9285 39.4682 13.4263C39.2806 13.9676 39.1872 14.5363 39.1919 15.1084V20.6903C39.1431 21.1611 39.264 21.6338 39.5334 22.0251C39.9054 22.3324 40.3659 22.5165 40.8496 22.551C41.2816 22.6155 41.4975 22.7892 41.4975 23.0472C41.4975 23.3052 41.2715 23.4937 40.8144 23.4937H34.9824C34.5052 23.4937 34.264 23.335 34.264 22.9976C34.264 22.7644 34.4951 22.6056 34.9472 22.5014C35.2282 22.4673 35.5025 22.3921 35.761 22.2781C35.973 22.2022 36.151 22.0545 36.2633 21.8613C36.4413 21.4801 36.509 21.0577 36.4592 20.6407V13.6992C36.4903 13.268 36.4286 12.8351 36.2784 12.429C36.2026 12.3069 36.101 12.2024 35.9804 12.1228C35.8599 12.0431 35.7233 11.9902 35.5801 11.9676L35.3189 11.9031C35.2003 11.8864 35.0916 11.8283 35.0125 11.7394C34.9384 11.6614 34.8972 11.5585 34.897 11.4516C34.9003 11.3657 34.926 11.2822 34.9718 11.2091C35.0176 11.136 35.0818 11.076 35.1582 11.0348L38.574 8.91612C38.6289 8.87129 38.6988 8.84829 38.7699 8.85161C39.011 8.8665 39.1467 9.02527 39.1718 9.36267Z" fill="#1D1D1B"/>
<path d="M50.6038 0.575357V20.7747C50.5998 21.022 50.6166 21.2693 50.654 21.514C50.6786 21.6563 50.7173 21.7959 50.7696 21.9307C50.8957 22.1237 51.068 22.2831 51.2712 22.3947C51.4745 22.5063 51.7024 22.5668 51.9349 22.5708C52.3921 22.6353 52.6181 22.809 52.6181 23.067C52.6181 23.325 52.372 23.5135 51.8747 23.5135H46.6103C46.1331 23.5135 45.897 23.3548 45.897 23.0174C45.897 22.68 46.123 22.6006 46.5801 22.5212C46.8038 22.4638 47.0209 22.384 47.2281 22.283C47.4114 22.201 47.5605 22.0591 47.6501 21.8811C47.8293 21.4897 47.897 21.0574 47.846 20.6308V4.60431C47.8496 4.46946 47.8378 4.33465 47.8108 4.20241C47.8018 3.9572 47.709 3.72222 47.5476 3.53573C47.3861 3.34924 47.1656 3.22221 46.9217 3.17532L46.7007 3.11081C46.6431 3.10892 46.5864 3.09567 46.534 3.07181C46.4817 3.04795 46.4347 3.01397 46.3959 2.97189C46.357 2.92981 46.327 2.88047 46.3078 2.82679C46.2885 2.7731 46.2804 2.71616 46.2838 2.6593C46.2938 2.57086 46.3263 2.48634 46.3781 2.41351C46.4298 2.34068 46.4993 2.28187 46.5801 2.24251L50.0211 0.128803C50.0417 0.10741 50.0667 0.0905979 50.0944 0.0794772C50.1221 0.0683565 50.1519 0.0631785 50.1818 0.0642973C50.4229 0.0642973 50.5636 0.232996 50.6038 0.575357Z" fill="#1D1D1B"/>
<path d="M62.9061 15.2375L62.5494 12.8658C62.4777 12.0121 62.1248 11.2052 61.5448 10.5685C60.9209 10.0618 60.1255 9.80818 59.3195 9.85894C58.6253 9.87067 57.9412 10.0244 57.3102 10.3105C56.6249 10.61 56.0107 11.0477 55.5068 11.5955C55.2506 11.8486 55.0447 11.9776 54.889 11.9776C54.8316 11.986 54.773 11.9809 54.718 11.9629C54.6629 11.9449 54.6129 11.9145 54.5719 11.874C54.5309 11.8335 54.5001 11.7841 54.4818 11.7297C54.4636 11.6753 54.4585 11.6175 54.467 11.5608C54.4784 11.4679 54.5129 11.3793 54.5675 11.3028C54.6328 11.1986 54.6981 11.0994 54.7634 11.015C55.4227 10.2577 56.2494 9.66017 57.1796 9.26849C58.1297 8.85653 59.1559 8.64366 60.1935 8.64331C61.4888 8.57283 62.7673 8.95976 63.8003 9.73489C64.7366 10.5588 65.3173 11.706 65.4228 12.9402L66.4475 20.2786C66.4909 20.8999 66.6618 21.5059 66.9498 22.0599C67.0364 22.2254 67.1666 22.3648 67.3266 22.4635C67.4865 22.5621 67.6705 22.6164 67.859 22.6206C68.0348 22.6252 68.2085 22.5823 68.3614 22.4965C68.4894 22.4329 68.5933 22.3302 68.6577 22.2038L68.8185 21.8862C68.8185 21.8217 68.8838 21.787 69.0144 21.787C69.145 21.787 69.3058 21.9358 69.3058 22.2385C69.2985 22.4888 69.2276 22.7332 69.0994 22.9491C68.9712 23.1651 68.7899 23.3456 68.5724 23.474C68.0377 23.8196 67.4076 23.993 66.769 23.9702C65.5132 23.9702 64.6475 23.5104 64.172 22.5908C64.0665 22.3576 63.9761 22.2385 63.9108 22.2385L63.7852 22.303C62.459 23.3803 60.7902 23.9602 59.0733 23.9404C58.2761 23.9481 57.4837 23.8171 56.7325 23.5534C56.0553 23.315 55.4286 22.955 54.8839 22.4916C54.3654 22.0426 53.9449 21.4939 53.6482 20.879C53.3478 20.2596 53.1932 19.5811 53.1961 18.8943C53.1923 18.2455 53.3474 17.6055 53.6482 17.0287C53.9536 16.4505 54.38 15.9431 54.899 15.5401C55.4659 15.107 56.1027 14.7715 56.7827 14.5478C57.5415 14.2947 58.3378 14.1689 59.1387 14.1757C59.4742 14.1749 59.8095 14.1914 60.1433 14.2253C60.4302 14.2582 60.7129 14.3197 60.9872 14.4089C61.2585 14.4982 61.5498 14.6073 61.8663 14.7413C62.2219 14.8876 62.5691 15.0532 62.9061 15.2375ZM63.5893 19.7824L63.0869 16.6417C62.63 16.1741 62.0947 15.788 61.5046 15.5004C60.9478 15.2516 60.3425 15.1263 59.7314 15.1333C59.2335 15.1171 58.7374 15.1996 58.2723 15.376C57.8073 15.5524 57.3828 15.8191 57.0238 16.1604C56.6665 16.4989 56.3856 16.9081 56.1995 17.3613C56.0134 17.8145 55.9263 18.3014 55.9438 18.7901C55.9403 19.3248 56.0463 19.8548 56.2553 20.3481C56.4555 20.8222 56.7492 21.2523 57.1193 21.6133C57.4853 21.9723 57.9164 22.2602 58.3902 22.4618C58.8856 22.6697 59.4192 22.7744 59.9574 22.7694C60.4366 22.7726 60.9137 22.7074 61.374 22.5759C61.7884 22.4687 62.1845 22.3015 62.5494 22.0797C62.8694 21.8842 63.1421 21.6216 63.3481 21.3107C63.5368 21.0367 63.6398 20.7141 63.6445 20.3828C63.6502 20.287 63.6502 20.1909 63.6445 20.095C63.6244 19.9958 63.6094 19.9015 63.5893 19.7824Z" fill="#1D1D1B"/>
<path d="M77.2078 19.311V3.85021C77.2559 3.22397 77.1686 2.59477 76.9516 2.00444C76.8431 1.8394 76.6941 1.70417 76.5184 1.61134C76.3427 1.51851 76.1461 1.4711 75.9469 1.47353C75.7302 1.47691 75.5166 1.42202 75.3291 1.31476C75.2712 1.26249 75.2265 1.19758 75.1986 1.12521C75.1707 1.05283 75.1603 0.975013 75.1683 0.89797C75.1683 0.555609 75.4396 0.401794 75.9821 0.401794H81.4223C81.9648 0.401794 82.2361 0.575456 82.2361 0.89797C82.2448 0.973321 82.2342 1.04964 82.2053 1.11988C82.1763 1.19013 82.1299 1.25202 82.0703 1.29987C81.891 1.39863 81.6923 1.45788 81.4876 1.47353C81.27 1.48638 81.0561 1.53501 80.8547 1.61742C80.6889 1.6942 80.5556 1.82585 80.4779 1.98955C80.378 2.21241 80.3184 2.4509 80.3021 2.69412C80.2643 3.0667 80.2475 3.44107 80.2519 3.81548V9.1444C80.2131 9.46859 80.3011 9.79517 80.498 10.0574C80.765 10.2483 81.0949 10.3333 81.4223 10.2955H92.5288C92.8622 10.3299 93.1971 10.2454 93.4731 10.0574C93.6875 9.7727 93.7812 9.41676 93.7344 9.06501V3.81548C93.7832 3.19531 93.6941 2.57207 93.4731 1.98955C93.3596 1.83189 93.2087 1.70419 93.0335 1.61767C92.8583 1.53115 92.6643 1.48847 92.4685 1.49338C91.9662 1.49338 91.6899 1.28002 91.6899 0.917813C91.6899 0.555605 91.9611 0.421638 92.5036 0.421638H98.0594C98.5969 0.421638 98.8681 0.595299 98.8681 0.917813C98.8681 1.24033 98.622 1.47353 98.1197 1.49338C97.8833 1.47797 97.6479 1.53437 97.445 1.655C97.242 1.77562 97.0813 1.9547 96.9844 2.16818C96.8983 2.36105 96.849 2.56793 96.8387 2.77847C96.8387 2.99183 96.8387 3.35403 96.8387 3.87005V20.0057C96.8387 20.5614 96.8387 20.9335 96.8689 21.1121C96.8962 21.3137 96.9399 21.5129 96.9995 21.7076C97.0761 21.9127 97.2191 22.0871 97.4064 22.2037C97.6271 22.3049 97.8628 22.3703 98.1046 22.3972C98.6069 22.3972 98.8531 22.6106 98.8531 22.9728C98.8531 23.335 98.5919 23.469 98.0745 23.469H92.4735C91.936 23.469 91.6648 23.2953 91.6648 22.9728C91.6648 22.6503 91.9209 22.4171 92.4434 22.3972C92.6419 22.3961 92.8372 22.3472 93.0123 22.2547C93.1873 22.1622 93.3369 22.0289 93.448 21.8663C93.6801 21.2796 93.7746 20.6485 93.7243 20.0206V12.9302C93.768 12.597 93.6858 12.2595 93.4932 11.9825C93.2017 11.8058 92.8581 11.7324 92.5187 11.7741H81.4223C81.0972 11.739 80.77 11.818 80.498 11.9974C80.3007 12.2668 80.2145 12.6003 80.2569 12.9302V20.6606C80.2569 20.8359 80.2569 20.9798 80.2569 21.0923C80.2569 21.2114 80.2569 21.3106 80.287 21.3999C80.2999 21.488 80.327 21.5734 80.3674 21.653C80.4413 21.8684 80.5843 22.0541 80.7746 22.1821C80.9649 22.3102 81.1923 22.3735 81.4223 22.3625C81.6383 22.3772 81.8487 22.4364 82.0402 22.5362C82.0981 22.5851 82.1431 22.6473 82.1711 22.7174C82.1991 22.7874 82.2094 22.8632 82.2009 22.9381C82.2009 23.2804 81.9296 23.4342 81.3871 23.4342H75.8967C75.3944 23.4342 75.1131 23.2606 75.1131 22.9381C75.1038 22.8618 75.1126 22.7845 75.1388 22.7122C75.1649 22.6398 75.2077 22.5745 75.2638 22.5213C75.4427 22.4111 75.6508 22.3558 75.8615 22.3625C76.0647 22.3692 76.2666 22.3276 76.4501 22.2413C76.6337 22.1549 76.7936 22.0264 76.9164 21.8663C77.1466 21.3487 77.2416 20.7823 77.1927 20.219V19.316L77.2078 19.311Z" fill="#1D1D1B"/>
<path d="M102.576 17.4851C102.32 17.5695 102.189 17.6687 102.189 17.7729C102.24 18.1282 102.352 18.4722 102.521 18.7901C103.006 19.894 103.779 20.851 104.761 21.5637C105.667 22.2148 106.76 22.5626 107.88 22.5561C108.67 22.5527 109.448 22.3711 110.156 22.0251C110.907 21.6606 111.58 21.155 112.135 20.5366C112.205 20.4431 112.294 20.3653 112.396 20.3084C112.466 20.2712 112.543 20.2492 112.622 20.2439C112.904 20.2439 113.044 20.3977 113.044 20.6954C113.033 20.8559 112.977 21.0102 112.884 21.142C112.21 22.0355 111.306 22.7346 110.266 23.1664C109.169 23.655 107.979 23.9071 106.775 23.9057C105.707 23.9168 104.648 23.7142 103.661 23.3102C102.73 22.9347 101.887 22.3753 101.183 21.6662C100.479 20.9572 99.9289 20.1135 99.5669 19.187C98.8062 17.2277 98.783 15.0638 99.5016 13.089C99.823 12.213 100.314 11.4074 100.948 10.7173C101.569 10.0517 102.319 9.51671 103.154 9.14443C104.027 8.75827 104.974 8.56198 105.931 8.56887C106.981 8.55731 108.017 8.8046 108.945 9.28833C109.897 9.79388 110.723 10.5003 111.367 11.3574C111.82 11.9486 112.212 12.5836 112.537 13.2528C112.665 13.5244 112.742 13.8171 112.763 14.1161C112.768 14.2041 112.741 14.2909 112.688 14.3616C112.635 14.4323 112.558 14.4824 112.472 14.5031L102.576 17.4851ZM102.018 16.4581C102.123 16.4453 102.224 16.4115 102.315 16.3588L109.397 14.3245C109.659 14.26 109.789 14.1409 109.789 13.9722C109.776 13.8034 109.742 13.6368 109.689 13.4761C109.623 13.2528 109.538 12.9799 109.433 12.7219C109.174 12.0507 108.761 11.4478 108.227 10.9604C107.846 10.5897 107.395 10.2968 106.899 10.0984C106.404 9.90004 105.873 9.80012 105.339 9.80436C104.815 9.78896 104.296 9.90242 103.827 10.1345C103.359 10.3667 102.957 10.7102 102.656 11.1341C101.937 12.2113 101.585 13.4873 101.652 14.776C101.645 15.1851 101.679 15.5939 101.752 15.9966C101.832 16.3092 101.918 16.4581 102.018 16.4581Z" fill="#1D1D1B"/>
<path d="M117.485 0.510998V20.6904C117.478 20.9379 117.495 21.1854 117.535 21.4298C117.559 21.5718 117.595 21.7114 117.646 21.8465C117.774 22.039 117.947 22.1982 118.151 22.3104C118.355 22.4227 118.583 22.4849 118.816 22.4916C119.273 22.5561 119.499 22.7248 119.499 22.9877C119.499 23.2507 119.248 23.4393 118.751 23.4393H113.491C113.014 23.4393 112.778 23.2755 112.778 22.9431C112.778 22.6106 113.004 22.5313 113.456 22.4469C113.682 22.3887 113.901 22.3072 114.109 22.2038C114.291 22.1189 114.439 21.9777 114.531 21.8019C114.711 21.4105 114.778 20.9781 114.727 20.5515V4.53994C114.728 4.40519 114.716 4.27066 114.692 4.13804C114.682 3.89309 114.589 3.65857 114.428 3.47226C114.266 3.28594 114.046 3.15867 113.803 3.11095L113.582 3.04645C113.525 3.04522 113.468 3.03256 113.416 3.00924C113.363 2.98592 113.316 2.95241 113.277 2.91072C113.238 2.86903 113.208 2.82002 113.189 2.76661C113.17 2.71321 113.162 2.6565 113.165 2.59989C113.174 2.5112 113.206 2.42618 113.257 2.35254C113.307 2.27889 113.376 2.21896 113.456 2.17815L116.902 0.0644359C116.923 0.0427805 116.948 0.0257895 116.975 0.0146488C117.003 0.00350806 117.033 -0.00150875 117.063 -6.17531e-05C117.299 -6.17531e-05 117.44 0.168637 117.485 0.510998Z" fill="#1D1D1B"/>
<path d="M124.824 16.3091L123.201 15.7633C121.192 15.1017 120.196 14.0002 120.212 12.4588C120.214 11.9421 120.336 11.4327 120.569 10.9703C120.804 10.5047 121.136 10.0937 121.543 9.76455C121.98 9.42037 122.475 9.15499 123.005 8.98059C123.602 8.78249 124.229 8.68519 124.859 8.69281C125.093 8.69281 125.299 8.69281 125.477 8.69281C125.655 8.70266 125.833 8.72421 126.009 8.75731C126.219 8.78155 126.427 8.818 126.632 8.86647L127.526 9.12449L127.963 9.25349C128.032 9.27208 128.103 9.28208 128.174 9.28326C128.33 9.28326 128.481 9.14433 128.631 8.86647C128.679 8.75379 128.745 8.6498 128.827 8.55885C128.897 8.52248 128.975 8.50695 129.053 8.51419C129.161 8.50731 129.269 8.53516 129.36 8.59358C129.489 8.7179 129.594 8.86412 129.671 9.02525L131.424 12.171L131.54 12.3943C131.566 12.4451 131.582 12.5009 131.585 12.558C131.585 12.7714 131.469 12.8756 131.228 12.8756C131.085 12.8784 130.944 12.8406 130.821 12.7664C130.657 12.6402 130.51 12.4935 130.384 12.3298C129.7 11.5246 128.862 10.8604 127.918 10.3749C127.083 9.91425 126.147 9.66056 125.19 9.63554C124.554 9.61818 123.931 9.81018 123.417 10.1813C123.193 10.3304 123.01 10.5314 122.883 10.7667C122.756 11.0019 122.689 11.2643 122.689 11.5309C122.685 11.7751 122.74 12.0167 122.85 12.2355C122.981 12.4746 123.171 12.6776 123.402 12.826C123.734 13.048 124.087 13.2375 124.457 13.3916C124.899 13.5801 125.462 13.7985 126.1 14.0317L128.013 14.7065C129.792 15.3283 131.053 15.9899 131.796 16.6912C132.167 17.0392 132.459 17.4612 132.652 17.9291C132.845 18.3971 132.935 18.9002 132.916 19.4052C132.923 20.0232 132.796 20.6355 132.544 21.2014C132.303 21.748 131.943 22.2358 131.49 22.6304C131.017 23.0359 130.472 23.3506 129.882 23.5582C129.237 23.7855 128.557 23.8997 127.873 23.8956C126.794 23.8668 125.723 23.7 124.688 23.3995L124.12 23.2556C124.08 23.258 124.041 23.2456 124.01 23.2208C123.985 23.2037 123.955 23.1934 123.924 23.1911C123.774 23.1911 123.603 23.3399 123.422 23.6376C123.374 23.7431 123.301 23.8364 123.211 23.9105C123.135 23.9492 123.05 23.9664 122.965 23.9601C122.857 23.967 122.749 23.9392 122.659 23.8807C122.527 23.7628 122.412 23.6276 122.317 23.4788L119.72 19.693C119.561 19.5385 119.458 19.336 119.429 19.1175C119.42 19.0608 119.425 19.003 119.443 18.9486C119.462 18.8942 119.493 18.8448 119.534 18.8043C119.575 18.7638 119.625 18.7333 119.68 18.7153C119.735 18.6973 119.793 18.6923 119.851 18.7007C120.041 18.7007 120.283 18.8793 120.564 19.2465C120.898 19.6073 121.263 19.9393 121.654 20.2388C122.227 20.7118 122.838 21.1815 123.487 21.648C124.035 22.0591 124.65 22.3746 125.306 22.5808C125.945 22.7895 126.612 22.8983 127.285 22.9033C128.059 22.9431 128.817 22.6832 129.4 22.1789C129.654 21.9326 129.852 21.6358 129.981 21.3082C130.11 20.9805 130.167 20.6296 130.148 20.2785C130.166 19.9465 130.114 19.6145 129.997 19.3031C129.879 18.9916 129.698 18.7072 129.465 18.4675C129.3 18.2975 129.114 18.1476 128.913 18.0209C128.652 17.8592 128.382 17.7134 128.104 17.5843C127.777 17.4354 127.386 17.2766 126.933 17.0881L124.824 16.3091Z" fill="#1D1D1B"/>
<path d="M143.6 15.1729L143.244 12.8012C143.168 11.9484 142.816 11.1426 142.239 10.5039C141.608 10.0016 140.807 9.75504 139.999 9.81419C139.304 9.82506 138.62 9.97884 137.989 10.2657C137.304 10.5657 136.69 11.0034 136.186 11.5508C135.925 11.8039 135.719 11.9329 135.568 11.9329C135.511 11.9412 135.452 11.9362 135.397 11.9182C135.342 11.9002 135.292 11.8697 135.251 11.8292C135.21 11.7887 135.179 11.7393 135.161 11.6849C135.143 11.6306 135.138 11.5727 135.146 11.5161C135.158 11.424 135.19 11.3358 135.242 11.2581C135.307 11.1539 135.372 11.0596 135.438 10.9703C136.1 10.2139 136.928 9.61661 137.859 9.22374C138.817 8.80799 139.852 8.59503 140.898 8.59856C142.192 8.52841 143.468 8.91536 144.5 9.69015C145.439 10.5119 146.022 11.66 146.127 12.8954L147.167 20.214C147.211 20.8336 147.382 21.4379 147.669 21.9903C147.755 22.1568 147.885 22.2972 148.045 22.3968C148.205 22.4963 148.389 22.5513 148.578 22.556C148.755 22.5589 148.928 22.5143 149.081 22.427C149.209 22.3649 149.311 22.2616 149.372 22.1342L149.538 21.8167C149.538 21.7522 149.603 21.7174 149.729 21.7174C149.854 21.7174 150.025 21.8712 150.025 22.169C150.018 22.4192 149.947 22.6636 149.819 22.8795C149.691 23.0955 149.509 23.276 149.292 23.4044C148.757 23.7495 148.127 23.9228 147.488 23.9006C146.233 23.9006 145.367 23.4408 144.891 22.5212C144.781 22.288 144.695 22.169 144.63 22.169L144.5 22.2335C143.176 23.3115 141.508 23.8916 139.793 23.8708C138.995 23.879 138.203 23.7479 137.452 23.4838C136.775 23.2454 136.148 22.8855 135.603 22.422C135.084 21.974 134.663 21.4251 134.368 20.8094C134.063 20.1915 133.906 19.5122 133.91 18.8247C133.906 18.1753 134.063 17.5347 134.368 16.9591C134.673 16.3808 135.099 15.8734 135.618 15.4706C136.184 15.0354 136.821 14.6997 137.502 14.4782C138.261 14.2248 139.057 14.099 139.858 14.1061C140.194 14.1053 140.529 14.1219 140.863 14.1557C141.15 14.1886 141.432 14.2501 141.707 14.3393C141.978 14.4286 142.269 14.5378 142.586 14.6718C142.933 14.8205 143.272 14.9877 143.6 15.1729ZM144.284 19.7278L143.781 16.587C143.324 16.1194 142.789 15.7333 142.199 15.4458C141.64 15.1964 141.033 15.071 140.421 15.0786C139.923 15.0635 139.427 15.1466 138.962 15.3229C138.497 15.4993 138.073 15.7654 137.713 16.1057C137.357 16.4447 137.077 16.8541 136.892 17.3072C136.706 17.7604 136.62 18.2471 136.638 18.7354C136.634 19.2596 136.736 19.7794 136.937 20.2642C137.139 20.7491 137.437 21.1891 137.814 21.5587C138.177 21.9203 138.609 22.2085 139.084 22.4071C139.58 22.6151 140.113 22.7198 140.652 22.7148C141.131 22.7173 141.608 22.6521 142.068 22.5212C142.482 22.4117 142.878 22.2446 143.244 22.0251C143.564 21.8277 143.837 21.5635 144.042 21.251C144.23 20.9768 144.331 20.654 144.334 20.3232C144.339 20.2273 144.339 20.1313 144.334 20.0354C144.319 19.9362 144.304 19.8369 144.284 19.7278Z" fill="#1D1D1B"/>
</g>
<defs>
<clipPath id="clip0_856_37">
<rect width="150" height="24" fill="white"/>
</clipPath>
</defs>
</svg>
